<svg width="278" height="34" viewBox="0 0 278 34" fill="none" xmlns="http://www.w3.org/2000/svg">
<path d="M267.735 8.16077C268.688 8.16077 269.704 8.30993 270.656 8.64417L276.562 8.26038V10.5621H276.326L272.873 9.74573C274.222 10.7113 275.175 12.048 275.175 13.6324C275.175 17.4204 271.672 19.6734 267.451 19.6735C266.262 19.6735 264.962 19.4886 263.812 19.0553C263.291 19.4763 262.857 20.1075 262.857 20.776C262.858 21.3453 263.192 21.7291 263.96 21.7291H271.151C275.076 21.7291 277.143 23.1649 277.144 26.235C277.144 30.3573 273.071 33.229 267.017 33.3033C262.746 33.3033 259.007 32.1027 259.007 29.7506C259.007 28.0672 261.013 27.1638 262.697 27.0153C261.261 26.4334 259.825 25.3811 259.825 23.4625C259.825 21.2094 261.546 19.7735 263.563 18.9069C261.546 18.0898 260.01 16.554 260.01 14.2018C260.01 10.4634 263.514 8.16077 267.735 8.16077ZM66.7158 7.86389C67.6689 7.86391 68.6837 8.01314 69.6367 8.34729L75.542 7.9635V10.2535H75.3066L71.8535 9.44885C73.2026 10.4144 74.1551 11.7512 74.1553 13.3356C74.1553 17.1237 70.6521 19.3776 66.4307 19.3776C65.2423 19.3775 63.9422 19.1916 62.791 18.7584C62.2712 19.1793 61.8379 19.8108 61.8379 20.4791C61.838 21.0484 62.1723 21.4321 62.9395 21.4323H70.1328C74.0568 21.4324 76.1239 22.8683 76.124 25.9381C76.124 30.1099 72.0019 32.9455 65.998 33.0074C61.7271 33.0074 57.9883 31.8058 57.9883 29.4537C57.9886 27.7704 59.9933 26.8671 61.6768 26.7184C60.2409 26.1366 58.8049 25.0841 58.8047 23.1656C58.8047 20.9126 60.5261 19.4766 62.5439 18.61C60.5261 17.793 58.9912 16.257 58.9912 13.9049C58.9915 10.1666 62.4946 7.86389 66.7158 7.86389ZM262.994 26.9899C262.56 27.3737 262.325 27.9934 262.325 28.86C262.325 31.2613 264.629 32.7467 267.698 32.7467C270.521 32.7466 273.306 31.6448 273.306 29.1071C273.306 27.6092 272.303 27.0397 270.719 27.0397V26.9899H262.994ZM61.9248 26.7555C61.4916 27.1392 61.2559 27.7581 61.2559 28.6246C61.2559 31.0263 63.5588 32.5113 66.6289 32.5114C69.4512 32.5114 72.237 31.4102 72.2373 28.8727C72.2373 27.3748 71.234 26.8053 69.6494 26.8053V26.7555H61.9248ZM235.61 8.19788L235.462 12.3209V12.3326H235.511V23.1276C235.511 24.2788 235.697 24.7616 237.381 24.8112V25.1949L229.52 26.3463H229.371L229.47 22.942C228.319 24.5761 226.301 26.3462 223.664 26.3463C220.841 26.3463 218.774 24.6133 218.774 20.8746V12.1471C218.774 11.0331 218.539 10.513 217.004 10.0797V9.74573L224.815 8.21057H224.951L224.803 12.3326V20.6276C224.803 22.3976 225.522 23.3131 227.155 23.3131C228.022 23.313 228.79 23.0286 229.458 22.5953V12.1344C229.458 11.0205 229.222 10.5003 227.736 10.067V9.73303L235.511 8.19788H235.61ZM185.746 8.16077C190.437 8.16097 192.839 11.33 192.839 15.1178V15.3043H182.379C182.415 19.8598 184.581 22.3483 187.937 22.3483C189.806 22.3483 191.577 21.679 192.777 20.0944L192.926 20.1442C192.258 23.8827 189.323 26.3222 185.312 26.3346C180.707 26.3345 177.018 23.0781 177.018 17.6559C177.018 12.2833 181.042 8.16077 185.746 8.16077ZM212.064 3.92737V8.76721H216.075V10.0055H212.052V20.8004C212.052 22.6202 212.969 23.3873 214.503 23.3873C215.172 23.3873 215.989 23.2024 216.657 22.7692L216.806 22.9176C215.605 24.7372 213.587 26.272 211 26.2721C207.979 26.2721 206.011 24.5018 206.011 20.9489V10.0182H204.142V9.53479C206.641 8.5321 210.046 6.13084 211.816 3.92737H212.064ZM33.7734 7.86389C38.2796 7.86389 41.0156 9.30063 41.0156 13.5221H40.9785V22.2867C40.9786 23.2396 41.4613 23.7222 42.2285 23.7223C42.6492 23.7223 42.9958 23.6357 43.1816 23.5367L43.3311 23.6852C42.4645 25.0345 40.7807 26.0864 38.9609 26.0865C37.0421 26.0865 35.6062 25.0344 35.1729 23.4498C34.1701 24.6878 32.4363 25.9381 30.2822 25.9381C27.7818 25.938 25.6777 24.4522 25.6777 21.7164C25.678 19.1294 27.646 17.7799 30.5674 16.8268L35.1729 15.2428V11.2194C35.1729 9.49874 34.7393 8.34755 33.4893 8.34729C32.239 8.34729 31.6689 9.59752 31.6689 11.3678C31.669 12.2344 31.8172 13.3856 32.0029 14.0045L28.2148 14.4869C27.3484 14.2022 26.6309 13.3851 26.6309 12.234C26.631 9.4487 30.0845 7.86393 33.7734 7.86389ZM85.0498 7.86389C89.5559 7.86391 92.292 9.30066 92.292 13.5221H92.2549V22.2867C92.255 23.2397 92.7375 23.7222 93.5049 23.7223C93.9257 23.7223 94.2722 23.6357 94.458 23.5367L94.6064 23.6852C93.7399 25.0345 92.0561 26.0865 90.2363 26.0865C88.3177 26.0864 86.8816 25.0343 86.4482 23.4498C85.4455 24.6878 83.7126 25.9381 81.5586 25.9381C79.058 25.9381 76.9531 24.4522 76.9531 21.7164C76.9533 19.1294 78.9223 17.7799 81.8438 16.8268L86.4482 15.2428V11.2194C86.4482 9.49855 86.015 8.34729 84.7646 8.34729C83.5146 8.34752 82.9453 9.59767 82.9453 11.3678C82.9453 12.2344 83.0936 13.3856 83.2793 14.0045L79.4912 14.4869C78.6247 14.2023 77.9062 13.3852 77.9062 12.234C77.9064 9.44866 81.3608 7.86389 85.0498 7.86389ZM113.114 7.9137L112.965 12.0358H113.003V22.8307C113.003 23.982 113.189 24.4648 114.872 24.5143V24.8981L107.011 26.0494H106.862L106.962 22.6451C105.811 24.2792 103.792 26.0494 101.155 26.0494C98.3329 26.0493 96.2656 24.3163 96.2656 20.5778V11.8502C96.2656 10.7362 96.0302 10.2161 94.4951 9.78284V9.44885L102.295 7.92639H102.443L102.258 12.0485V20.3424C102.258 22.1127 102.975 23.0289 104.609 23.0289C105.476 23.0289 106.244 22.7445 106.912 22.3112V11.8502C106.912 10.7362 106.677 10.2161 105.191 9.78284V9.44885L112.965 7.9137H113.114ZM124.145 7.86389C128.836 7.86408 131.237 11.0338 131.237 14.8219V15.0074H120.777C120.815 19.5629 122.981 22.0513 126.336 22.0514C128.205 22.0514 129.976 21.383 131.177 19.7985L131.325 19.8473C130.656 23.586 127.734 26.0377 123.711 26.0377C119.106 26.0377 115.417 22.7812 115.417 17.359C115.417 11.9864 119.441 7.86389 124.145 7.86389ZM201.852 8.14807V24.316C201.852 25.3312 202.421 25.4679 203.721 25.567V25.9996H194.026V25.567C195.315 25.4679 195.847 25.3683 195.847 24.316V11.986L194.015 10.1666V10.0182L201.74 8.14807H201.852ZM246.356 8.14807L246.207 11.7506C247.21 10.2156 249.562 8.14807 252.298 8.14807C255.418 8.1481 257.138 10.1663 257.138 13.4713V24.316C257.138 25.3311 257.708 25.4679 259.007 25.567V25.9996H249.277V25.567C250.577 25.4679 251.146 25.3682 251.146 24.316H251.159V13.7194C251.159 12.271 250.589 11.318 248.906 11.318C247.903 11.318 247.036 11.6022 246.219 11.986V24.316C246.219 25.3311 246.789 25.4679 248.089 25.567V25.9996H238.396V25.567C239.683 25.4679 240.216 25.3683 240.216 24.316V11.986L238.396 10.1666V10.0182L246.207 8.14807H246.356ZM175.272 3.1969V3.53088L163.042 25.3561H168.129C171.051 25.3561 173.019 23.437 175.321 18.2623H175.656L174.456 25.9879H155.898V25.7028L168.129 3.82776H163.858C160.789 3.82778 159.018 5.02887 157.434 9.72034H157.05L157.198 3.1969H175.272ZM51.9092 7.86389L51.7607 13.8561C52.5282 10.3528 53.9646 7.86411 56.2793 7.86389C56.9974 7.86389 57.53 8.06228 57.8643 8.29749V13.1373H57.0967C54.9797 13.1373 53.1102 13.2371 51.7236 14.2399V23.8961C51.7239 24.948 52.5416 25.1333 54.3115 25.2819V25.7155H43.9492V25.2819C45.2367 25.1827 45.7695 25.0841 45.7695 24.0319V11.7018L43.9492 9.88245V9.73303L51.7607 7.86389H51.9092ZM140.3 7.86389L140.151 13.8561C140.918 10.3529 142.355 7.8642 144.706 7.86389C145.425 7.86389 145.957 8.06228 146.291 8.29749V13.1373H145.523C143.407 13.1373 141.537 13.2371 140.151 14.2399V23.8961C140.152 24.948 140.969 25.1333 142.738 25.2819V25.7155H132.327V25.2819C133.614 25.1827 134.146 25.084 134.146 24.0319V11.7018L132.327 9.88245V9.73303L140.151 7.86389H140.3ZM15.6992 2.82581L23.3623 23.8834C23.746 24.8366 24.3775 25.1213 25.4297 25.2203V25.7028H13.8672V25.2203C15.4888 25.1708 16.4051 24.8366 16.4053 23.735C16.4053 23.4007 16.3184 22.9669 16.1699 22.484L14.2012 17.2106H6.57617L4.70605 22.484C4.52036 22.9174 4.47168 23.3018 4.47168 23.5865C4.47194 24.7375 5.8088 25.1708 7.87598 25.2203V25.7028H0.782227V25.2203C1.98288 25.1213 2.88655 24.8861 3.56738 23.1656L9.99219 5.66077L8.94043 2.82581H15.6992ZM33.5752 16.3942C32.1889 16.9759 31.4219 17.83 31.4219 19.8971C31.4219 22.0635 32.2883 23.4996 33.8232 23.4996C34.3059 23.4996 34.838 23.3511 35.1104 23.0172V15.775L33.5752 16.3942ZM84.9014 16.3942C83.5149 16.9759 82.7471 17.8297 82.7471 19.8971C82.7471 22.0634 83.6136 23.4994 85.1484 23.4996C85.6187 23.4996 86.1023 23.3514 86.4365 23.0172V15.775L84.9014 16.3942ZM267.513 8.56897C266.027 8.56916 265.545 10.4512 265.545 13.3229C265.545 16.7393 266.311 19.2276 267.797 19.2281C269.233 19.2281 269.704 17.359 269.766 14.3756C269.766 11.0579 268.998 8.56897 267.513 8.56897ZM66.4434 8.28479C64.9578 8.28479 64.4746 10.1667 64.4746 13.0387C64.4746 16.4552 65.2423 18.9434 66.7275 18.944C68.213 18.944 68.6963 17.1118 68.6963 14.0914C68.6963 10.7737 67.9288 8.28487 66.4434 8.28479ZM6.82324 16.4928H13.9658L10.3271 6.6637L6.82324 16.4928ZM185.251 8.68127C183.431 8.68127 182.514 11.4538 182.428 14.6725H187.701C187.701 11.219 186.971 8.68166 185.251 8.68127ZM123.649 8.3844C121.83 8.3844 120.926 11.1694 120.826 14.3756H126.101C126.101 10.9221 125.37 8.38475 123.649 8.3844ZM198.918 0.720337C200.886 0.720553 202.087 2.05805 202.087 3.69202C202.087 5.32594 200.886 6.7123 198.918 6.71252C196.95 6.71252 195.76 5.31369 195.748 3.69202C195.748 2.05792 196.95 0.720337 198.918 0.720337Z" fill="#003478"/>
<script xmlns=""/></svg>